<?xml version="1.0" encoding="UTF-8" standalone="no"?>
<svg
   version="1.1"
   id="Layer_1"
   x="0px"
   y="0px"
   width="100%"
   viewBox="0 0 1008 1024"
   enable-background="new 0 0 1008 1024"
   xml:space="preserve"
   sodipodi:docname="TrojanHead_adobe_express.svg"
   inkscape:version="1.2.1 (9c6d41e410, 2022-07-14)"
   xmlns:inkscape="http://www.inkscape.org/namespaces/inkscape"
   xmlns:sodipodi="http://sodipodi.sourceforge.net/DTD/sodipodi-0.dtd"
   xmlns="http://www.w3.org/2000/svg"
   xmlns:svg="http://www.w3.org/2000/svg"><defs
   id="defs96" /><sodipodi:namedview
   id="namedview94"
   pagecolor="#505050"
   bordercolor="#ffffff"
   borderopacity="1"
   inkscape:showpageshadow="0"
   inkscape:pageopacity="0"
   inkscape:pagecheckerboard="1"
   inkscape:deskcolor="#505050"
   showgrid="false"
   inkscape:zoom="1.0029297"
   inkscape:cx="304.60759"
   inkscape:cy="511.50146"
   inkscape:window-width="2560"
   inkscape:window-height="1371"
   inkscape:window-x="0"
   inkscape:window-y="32"
   inkscape:window-maximized="1"
   inkscape:current-layer="Layer_1" />
<path
   fill="#000000"
   opacity="1.000000"
   stroke="none"
   d=" M347.468628,1025.000000   C351.746490,1014.010681 356.770630,1003.130920 361.160370,992.000977   C365.429291,981.177490 369.185425,970.120605 369.674194,958.311768   C370.389587,941.027588 364.336456,926.102844 352.250366,914.121399   C336.462311,898.469910 322.781860,881.146667 309.424255,863.493591   C302.092407,853.804077 289.516693,850.251221 277.754028,853.302979   C260.390503,857.807800 242.795471,861.323730 224.920486,863.263794   C214.504196,864.394287 204.090942,865.656921 193.595215,865.144775   C187.612244,864.852844 181.815918,863.623840 176.242950,861.139465   C160.251587,854.010437 156.475388,839.906860 158.201172,825.313721   C159.348206,815.614502 164.605042,807.528931 168.208206,798.806213   C169.782715,794.994568 169.961075,791.389282 168.813263,787.639771   C162.170059,765.938843 163.542816,744.348694 169.474121,722.773987   C170.611511,718.636841 171.376297,714.397339 172.377975,709.914185   C164.505386,708.042053 156.938583,706.319946 149.412323,704.435852   C136.119583,701.108276 130.570602,689.276123 136.876694,677.157959   C152.320129,647.480896 167.748871,617.792908 183.589722,588.327698   C189.821289,576.736572 195.729553,564.998901 201.554382,553.211914   C202.291718,551.719849 204.114059,549.971680 202.609116,548.182983   C201.122406,546.416016 198.795364,547.213135 196.937180,547.572510   C184.894836,549.901917 172.878052,552.364746 160.862564,554.831116   C147.041733,557.668030 133.245819,560.628540 119.409935,563.389160   C111.578644,564.951782 111.275246,564.394470 112.511780,556.660522   C116.049995,534.530640 120.565147,512.585266 124.984657,490.626709   C126.772392,481.744293 128.418427,472.731323 133.772079,464.929993   C138.993088,457.322021 146.195496,452.070190 154.964050,451.256927   C166.307037,450.204895 172.948334,443.288422 179.305161,435.543518   C197.455704,413.429718 215.415848,391.159485 233.416031,368.922546   C236.750610,364.803131 239.922470,360.552002 243.384384,356.084290   C236.466278,348.806366 228.555481,342.997528 221.246002,336.539062   C211.914459,328.293945 211.963974,327.969116 222.250412,321.228851   C237.712997,311.096893 252.871811,300.501190 268.338226,290.375214   C292.632446,274.469574 318.074982,260.853333 345.264099,250.338181   C370.096558,240.734436 395.642212,234.524826 421.897888,230.894684   C443.908051,227.851532 466.056030,228.435059 488.190186,228.761292   C499.172913,228.923172 510.140656,228.814377 521.133850,229.463654   C540.143616,230.586365 558.718689,233.870132 576.987976,239.012238   C608.850220,247.980240 637.928772,262.850891 665.394531,281.091125   C689.688904,297.225250 711.446777,316.259949 729.949463,338.797913   C744.553650,356.587067 756.916565,375.891693 767.300659,396.504028   C774.582397,410.958130 780.567139,425.929443 785.891052,441.129517   C791.160339,456.173401 794.434998,471.813232 797.585022,487.461609   C802.813660,513.436768 802.908203,539.699829 802.191162,565.966003   C801.415222,594.391235 796.570740,622.089722 785.982056,648.703186   C781.689148,659.493042 777.280273,670.257568 773.980042,681.467590   C769.971497,695.083069 773.100403,706.917053 781.699524,717.415222   C806.494934,747.686340 828.772827,779.862244 852.758179,810.741516   C869.334351,832.081787 887.757141,851.740662 907.444092,870.222229   C917.870850,880.010559 928.432983,889.654663 938.881104,899.420410   C940.282959,900.730713 942.398254,901.963989 941.808533,904.290466   C941.150269,906.887756 938.589355,906.189087 936.745239,906.461853   C915.422607,909.615601 893.997131,909.870544 872.508423,908.828064   C858.386475,908.143005 844.246826,907.830261 830.119385,907.248169   C806.027771,906.255554 781.940430,905.160950 757.849426,904.152771   C747.052551,903.700928 736.251465,903.346497 725.451538,902.968323   C723.763489,902.909180 722.177307,902.678223 720.688904,901.747803   C701.565979,889.793457 683.104858,892.424072 665.124146,904.386353   C656.671509,910.009827 648.342041,915.819519 639.855042,921.389954   C626.664429,930.047607 611.725098,934.962585 597.330994,941.050842   C579.546326,948.573181 561.587219,955.637939 543.347351,961.974670   C527.757751,967.390625 511.565887,970.290100 495.372559,973.115173   C471.650604,977.253601 447.908875,981.177307 425.647705,991.085388   C414.137177,996.208557 403.951050,1003.435669 393.721039,1010.532837   C386.743134,1015.373840 379.680023,1020.042725 372.242889,1024.767578   C363.979095,1025.000000 355.958191,1025.000000 347.468628,1025.000000  M323.322693,308.783905   C336.079865,302.276184 349.116150,296.398712 362.522003,291.346405   C379.670990,284.883362 397.300079,279.917084 415.362671,277.185516   C438.878571,273.629272 462.632690,273.138397 486.438232,273.538849   C507.331635,273.890350 527.851990,276.585358 548.068604,281.464905   C581.915894,289.634369 613.066956,303.910797 641.465149,324.111176   C662.208557,338.866486 680.728394,356.096313 696.906555,375.679779   C712.353638,394.378235 724.250916,415.271362 733.812012,437.630829   C748.786865,472.651123 756.741577,509.063232 756.893311,547.099854   C756.964966,565.073608 754.661499,582.913757 752.328613,600.725830   C749.876648,619.447632 746.373413,637.834229 736.881775,654.521790   C735.905701,656.237854 735.292969,658.424988 732.560181,657.613525   C729.963501,656.842407 728.674622,655.095764 729.016663,652.365112   C730.090454,643.791443 730.580688,635.084656 732.435547,626.680725   C737.022583,605.898010 741.531555,585.084290 742.619751,563.809021   C743.537415,545.868286 743.260498,527.905884 740.924133,509.971405   C737.536560,483.968506 729.855713,459.342133 718.256775,435.970184   C705.841858,410.954163 690.344116,387.944305 671.233459,367.477386   C648.212463,342.822693 621.448608,323.574097 590.453308,309.941437   C560.980042,296.978241 530.033936,290.807617 498.259766,288.289276   C473.694031,286.342255 449.105835,285.957764 424.487427,288.945404   C401.534332,291.730927 379.308716,296.889282 358.081787,306.029083   C336.181244,315.458984 315.540039,327.365295 294.714935,338.888428   C276.977417,348.703094 260.852844,360.682373 247.136383,375.680145   C230.617477,393.742188 215.797623,413.229309 200.325668,432.166687   C196.838165,436.435364 194.017258,441.248657 190.716949,446.062958   C192.437057,446.309540 192.983276,445.592804 193.456741,444.961090   C199.150314,437.364594 205.534286,430.349335 211.660919,423.113861   C227.308441,404.634399 244.335663,387.621338 263.972870,373.374573   C267.057007,371.137054 270.599060,369.374268 275.099823,368.213837   C274.546356,369.531097 274.423431,370.192047 274.052216,370.652985   C265.933411,380.733917 257.575195,390.630035 249.698029,400.895508   C239.158783,414.630219 228.970398,428.634674 218.689499,442.566193   C217.752441,443.835999 216.518082,445.411255 218.272583,446.993927   C219.916824,448.477173 221.499802,447.391235 222.783279,446.420288   C224.901566,444.817810 226.915451,443.049988 228.815109,441.190216   C242.389069,427.901459 254.047180,412.860229 267.199280,399.179779   C277.765198,388.189392 289.212189,378.365326 302.830170,371.303436   C305.275421,370.035400 307.729584,368.454620 310.747833,369.960419   C310.954132,373.228455 308.750824,374.808472 306.844208,376.632172   C292.054352,390.779144 276.475372,404.225342 265.703827,422.003021   C261.676086,428.650482 257.910553,435.447601 255.999130,443.778778   C265.499878,443.778778 274.472961,444.079346 283.414886,443.681030   C290.227081,443.377594 296.650909,440.864319 301.335541,435.862518   C319.686127,416.269379 341.861938,401.374054 362.782776,384.915192   C369.437927,379.679474 376.742584,376.709076 384.821075,375.153107   C386.535645,374.822876 388.776093,374.311829 389.781036,376.325012   C390.789185,378.344543 389.189789,379.692169 387.682098,380.850861   C379.633484,387.036560 371.654968,393.315643 363.533112,399.403503   C350.149353,409.435455 337.835876,420.605408 327.451660,433.737000   C324.044128,438.046112 320.895203,442.687469 318.202179,448.442444   C329.250610,448.749420 339.353485,448.691986 349.454987,449.531464   C370.201996,451.255615 390.645325,454.823975 410.848145,459.430359   C438.182312,465.662781 464.135345,475.823669 489.021912,488.917450   C504.789551,497.213470 520.750977,498.019958 535.917847,486.337402   C542.286316,481.431976 549.766357,479.773895 557.619934,482.744141   C563.427795,484.940735 568.314148,488.666595 573.298767,492.359222   C586.535339,502.164978 595.567200,518.036621 585.016724,537.836426   C582.714172,542.157593 583.080505,546.152954 585.686279,550.066284   C587.251465,552.416931 588.859192,554.762329 590.674011,556.919800   C602.575500,571.068298 613.317017,586.100891 624.236389,600.992310   C627.694763,605.708679 627.042969,608.819153 622.853149,611.608582   C618.516785,614.495483 616.397339,611.683411 613.973145,608.492554   C604.714172,596.305298 597.055542,582.936768 586.628174,571.613037   C574.966553,558.948975 571.767944,558.553894 557.460327,568.087952   C553.865540,570.483398 550.192505,572.754578 545.700806,573.218018   C530.367493,574.800110 518.945862,567.154053 509.512817,556.619751   C498.556641,544.384460 498.529999,529.608704 503.143127,514.765381   C504.535065,510.286560 504.025513,508.233215 499.652130,506.493561   C491.152435,503.112457 482.775177,499.405487 474.447113,495.614075   C436.083466,478.148560 395.402191,469.291382 353.947266,463.680664   C330.558197,460.515076 306.978699,459.073517 283.336548,458.990631   C263.518768,458.921173 243.696259,458.921143 223.931854,460.379120   C206.198746,461.687256 188.532196,463.907501 170.796768,465.170441   C158.999191,466.010590 152.300446,472.348175 148.796631,482.968506   C145.050049,494.324707 141.105881,505.628448 137.814819,517.117493   C135.863327,523.930115 133.647247,530.766418 134.063400,538.133606   C134.301056,542.340759 135.674011,543.250183 139.630920,542.296265   C147.848877,540.315125 156.140182,538.620422 164.436569,536.986816   C176.834534,534.545471 189.483353,534.030151 201.971085,532.328308   C225.543243,529.115845 249.253082,527.429321 272.948792,525.797913   C294.184753,524.335815 315.484070,523.980347 336.794800,525.292786   C355.405212,526.439026 373.849396,528.391602 392.029114,532.708313   C420.124756,539.379639 446.612762,549.918823 470.886719,565.606567   C486.973358,576.003113 501.500305,588.570862 517.014832,599.776062   C519.262756,601.399597 519.781494,603.451233 518.918030,605.900330   C518.038574,608.394714 516.598145,610.172791 513.565369,610.335205   C507.095154,610.681885 500.628387,611.159119 494.175476,611.749756   C478.449921,613.189026 462.736633,614.762024 447.011597,616.207031   C434.943878,617.315918 422.868195,618.341309 410.790466,619.336121   C407.795166,619.582886 407.128876,620.869812 408.087708,623.646912   C409.659851,628.200439 411.040588,632.822510 412.411713,637.442505   C418.270325,657.183105 424.147003,676.918579 429.919342,696.684509   C435.976013,717.423950 441.966614,738.182983 447.863403,758.968262   C448.699707,761.916138 450.233185,763.153992 453.195190,762.868103   C458.324768,762.372986 463.040924,763.775818 467.700928,765.804565   C484.487335,773.112671 501.297089,780.368530 518.144226,787.535645   C559.511719,805.134277 600.202393,824.224609 640.644348,843.815125   C680.528748,863.135498 721.880127,877.840210 765.575745,885.402222   C787.027954,889.114868 808.792969,890.478638 830.511780,892.021851   C852.525879,893.586182 874.412231,891.952026 896.312134,890.089050   C899.176941,889.845276 900.963501,888.746277 901.830200,885.985962   C902.736938,883.097961 900.089905,882.726501 898.735229,881.579407   C892.273560,876.107727 884.613708,872.039917 879.236511,865.304321   C862.211304,843.977783 845.145325,822.682190 828.307373,801.208191   C802.531128,768.334778 776.948669,735.309570 751.245300,702.378906   C745.077637,694.476929 744.919434,688.695557 750.414612,680.159058   C753.738586,674.995422 756.724243,669.602112 759.656555,664.200500   C768.423889,648.050049 775.184265,631.068420 780.084290,613.368591   C783.678528,600.385742 786.003479,587.139038 787.319702,573.737732   C789.296204,553.613708 789.048401,533.467529 786.922852,513.383728   C785.401855,499.011871 783.143250,484.760559 778.816101,470.866028   C773.253540,453.004456 764.603699,436.440704 757.675964,419.156494   C750.919556,402.299835 743.446594,385.721466 733.404297,370.508301   C717.463196,346.359070 697.200256,326.117798 674.568298,308.388397   C637.488770,279.341003 596.094299,259.184509 549.572693,250.206558   C527.978455,246.039200 506.198273,243.723938 484.213501,243.432678   C469.897064,243.242981 455.626404,244.076920 441.326996,244.928848   C419.493347,246.229675 398.038452,249.014725 377.155548,255.709656   C335.045715,269.209869 295.441589,287.854736 259.063110,313.115234   C255.401566,315.657745 251.593231,318.050476 248.679337,321.625000   C246.027237,324.878357 245.967178,327.704956 248.553696,330.997040   C251.887863,335.240784 256.385986,338.152008 260.195251,341.818481   C263.638092,345.132294 266.123260,344.380676 269.581085,341.827789   C286.349945,329.447479 304.351196,319.023254 323.322693,308.783905  M197.594086,805.005432   C193.151596,812.880432 187.368774,819.740112 181.570648,826.625671   C178.194016,830.635620 175.598068,835.237061 178.227936,840.804749   C180.866821,846.391479 185.763763,846.901550 191.252930,846.992859   C212.774612,847.350708 233.551483,843.360413 253.952682,836.913879   C284.387482,827.296631 314.876587,817.845886 345.227692,807.971069   C365.064667,801.516968 383.878082,792.058472 404.862823,788.929810   C414.047729,787.560425 418.140137,780.204102 416.726379,770.601929   C413.247620,746.973816 409.051849,723.505432 403.042908,700.342590   C396.324982,674.446777 387.287628,649.540710 374.343903,626.093628   C371.292603,620.566284 368.032684,615.152649 367.053314,608.703979   C366.450806,604.736694 367.234436,602.214172 371.716217,601.842468   C378.174011,601.306885 384.614746,600.551270 391.076843,600.084167   C415.437653,598.323425 439.804932,596.652710 464.166809,594.906433   C465.876892,594.783813 467.762451,595.027466 469.292084,593.721924   C445.423279,566.663757 371.622009,541.914856 349.046692,547.329590   C349.877533,559.451050 348.483215,561.180481 336.177582,563.082764   C334.544739,563.335144 332.868561,563.416809 331.214081,563.401611   C322.056854,563.317810 312.896851,562.968567 303.744110,563.112915   C292.038239,563.297424 282.025238,567.282593 274.704498,576.955200   C270.179657,582.933777 265.569336,583.946716 258.714417,580.281982   C250.204208,575.732300 241.812210,570.958923 234.128754,565.036194   C222.157349,555.808044 214.115387,557.567566 206.711853,570.902283   C206.388367,571.484863 206.067612,572.068909 205.748550,572.653931   C197.462418,587.847961 189.830261,603.374023 182.053177,618.831116   C173.670395,635.492065 165.434921,652.208191 158.222946,669.409241   C156.339340,673.901733 153.716522,678.166260 152.978043,683.225830   C156.446671,684.143860 159.615143,683.690491 162.747238,683.659424   C171.415024,683.573364 180.050964,683.624451 188.487656,686.065918   C195.429184,688.074646 198.861130,692.649353 198.021271,699.264099   C197.645813,702.221191 196.847137,705.122253 196.401230,708.072998   C195.329102,715.167908 191.554855,721.397400 189.503372,728.746643   C193.933502,729.583313 197.894318,730.552979 202.056229,730.667786   C213.028000,730.970459 224.023529,731.013489 234.960480,731.823425   C248.308716,732.811890 260.834351,736.488464 270.981659,745.880432   C272.742828,747.510498 275.630951,749.116211 274.691620,751.843201   C273.823883,754.362488 270.591156,754.162170 268.255493,754.819702   C267.785126,754.952148 267.263214,754.916870 266.764282,754.929810   C257.776855,755.162354 248.888351,754.082520 240.048569,752.678772   C230.710464,751.195923 221.532364,748.282043 211.937363,749.161316   C202.425003,750.033020 194.282562,753.341492 189.863480,762.755127   C195.784836,768.108459 202.725204,769.486450 209.964188,769.861511   C213.898529,770.065186 214.969955,771.942200 213.684021,775.435303   C213.168732,776.835144 212.495026,778.189697 211.772964,779.498413   C207.192032,787.801758 202.577377,796.086548 197.594086,805.005432  M539.082520,935.506775   C550.740723,932.189697 562.583679,929.480530 573.484436,923.852173   C583.194763,918.838440 586.334656,910.292236 582.197083,900.118591   C579.389160,893.214661 573.790100,887.517700 573.092407,879.752258   C572.127014,869.006470 568.502686,859.029297 564.558105,849.155090   C561.839050,842.348633 559.017273,835.313477 552.880615,830.869507   C541.976929,822.973694 522.402954,823.020935 511.229401,830.678406   C498.264038,839.563904 486.700043,849.996521 476.494751,862.015320   C455.589905,886.635071 440.734650,914.416870 432.062103,945.505005   C430.127106,952.441223 433.194672,957.607788 440.310730,958.436646   C446.376587,959.143188 452.507477,959.214722 458.604797,957.326965   C470.662048,953.593994 482.820648,950.169983 495.008667,946.882568   C509.427734,942.993408 523.922058,939.383423 539.082520,935.506775  M420.980103,922.521179   C427.320374,911.755005 432.532684,900.435364 437.027954,888.806763   C439.412048,882.639343 436.586212,878.696411 429.993683,878.324463   C427.173859,878.165344 424.395996,877.889526 421.593170,877.479736   C406.307465,875.244629 396.529724,882.507263 395.772369,898.052673   C395.420197,905.281250 397.971161,912.657349 399.257355,919.957581   C400.281647,925.771179 402.980255,930.564941 409.153107,931.690674   C415.575958,932.861938 417.861359,927.441223 420.980103,922.521179  M569.702698,513.912903   C567.808289,510.721283 565.229248,508.113617 562.467346,505.704803   C552.161438,496.716125 542.566284,495.977722 531.594055,503.516785   C529.018494,505.286469 526.752502,507.583649 524.599976,509.878235   C517.270447,517.691650 514.592224,527.057556 516.375305,537.515930   C518.670227,550.976440 532.084717,559.292114 545.634399,556.089050   C563.928223,551.764465 579.809937,530.709595 569.702698,513.912903  z"
   id="path81"
   style="fill:#592633;fill-opacity:1" />
<path
   fill="#000000"
   opacity="1.000000"
   stroke="none"
   d=" M838.284851,145.645569   C840.951111,147.682419 843.243469,149.642838 845.755737,151.262238   C849.401855,153.612518 849.450989,156.060623 846.419373,158.879395   C839.712280,165.115631 833.018250,171.365982 826.289368,177.578629   C812.721252,190.105988 799.123413,202.601227 785.557251,215.130737   C777.004944,223.029465 768.482239,230.960220 759.964294,238.895905   C759.155823,239.649078 758.475891,240.540131 756.991638,242.199890   C766.973633,236.537582 774.084351,229.069962 781.967102,222.619064   C802.446045,205.860001 822.654419,188.770386 842.976562,171.819565   C845.914246,169.369171 848.863892,166.932220 851.842896,164.532318   C856.108948,161.095535 857.745483,161.340775 861.004883,165.993561   C864.729309,171.310104 868.379272,176.678772 872.068665,182.019928   C889.279419,206.936203 906.469788,231.866547 923.732117,256.747070   C926.009888,260.030029 925.955933,262.287476 922.145691,264.353302   C898.734924,277.046295 875.384766,289.851013 852.014648,302.619019   C842.662476,307.728485 833.317200,312.850769 823.953125,317.938385   C822.351074,318.808777 820.712585,319.586090 819.455566,321.827820   C827.736633,319.592834 834.794983,315.647522 842.109619,312.462036   C861.480835,304.025909 880.670837,295.173401 899.930359,286.480957   C909.182861,282.305023 918.458801,278.179138 927.664734,273.902802   C931.433167,272.152313 933.770264,272.575256 935.326721,276.899017   C943.950195,300.855499 952.311218,324.882080 956.701172,350.065430   C959.897400,368.400879 962.471130,386.810547 964.256104,405.357086   C968.509888,449.556030 967.609375,493.860657 967.069885,538.129883   C966.623962,574.716553 963.893982,611.158447 958.666321,647.476257   C954.674866,675.205444 951.442810,703.073792 950.790344,731.248718   C950.353577,750.106262 950.870361,768.851196 952.773560,787.482727   C954.901367,808.311707 959.770447,828.749878 965.555359,848.912170   C970.139587,864.889648 974.714539,880.869812 979.279541,896.852844   C979.861389,898.890015 981.289551,901.300171 979.407593,902.952942   C977.156250,904.930176 975.109436,902.623474 973.181824,901.516235   C947.966858,887.033630 926.589050,867.856873 906.216431,847.337097   C885.554199,826.525574 866.779175,804.026245 846.983765,782.446228   C824.886597,758.356934 804.876221,732.631042 785.322937,706.515015   C780.079285,699.511414 779.030334,691.687927 782.649109,683.459961   C792.043274,662.101013 799.820984,640.194519 805.079834,617.424744   C809.945984,596.355164 813.187866,575.114441 814.353455,553.455566   C815.449585,533.086975 815.244080,512.825134 811.585999,492.822937   C808.934875,478.326782 804.493896,464.164642 801.075623,449.800110   C797.997070,436.863007 794.678650,424.017548 789.629822,411.679260   C779.778259,387.604431 766.027649,365.813080 750.183594,345.337463   C737.772888,329.298859 725.411133,313.170013 709.666260,300.067169   C697.348206,289.816132 684.017151,281.022583 670.623840,272.298767   C654.707275,261.931427 638.587524,251.933289 621.182739,244.175613   C600.146667,234.799377 578.282776,228.324280 555.676025,223.813522   C525.010254,217.694672 494.064209,218.479767 463.213043,219.589417   C435.363434,220.591141 407.429047,222.408417 380.053040,228.395248   C358.840302,233.034256 338.597229,240.639526 318.858795,249.593277   C289.953278,262.705414 262.692535,278.670807 237.054108,297.367462   C231.825653,301.180298 226.876266,305.426056 222.105438,309.806824   C207.458939,323.255737 194.694962,325.975464 175.969757,316.960876   C142.955765,301.067444 110.366043,284.292969 77.593864,267.897003   C61.953854,260.072266 46.302216,252.270798 30.656935,244.456604   C24.140198,241.201782 23.855515,240.174057 27.590981,233.925354   C38.638882,215.444336 54.156536,201.200516 70.942993,188.157852   C74.622795,185.298721 78.402695,182.561050 81.983612,179.583572   C88.908302,173.825790 96.456726,174.483154 103.318367,178.679840   C114.239441,185.359314 124.668030,192.857071 135.185715,200.179962   C150.072845,210.545029 164.864700,221.047241 179.670700,231.528381   C186.448181,236.326172 193.067749,241.354568 200.274643,245.508530   C199.840240,245.934433 199.405823,246.360352 198.971405,246.786270   C193.873398,240.619186 189.131317,234.107162 183.580109,228.379303   C177.697479,222.309418 170.966644,217.070480 164.745117,211.318451   C147.393951,195.276550 130.115646,179.155838 112.806236,163.068771   C108.636139,159.193146 108.668411,157.663925 113.185966,154.685425   C138.068939,138.279785 162.954056,121.877304 187.870819,105.523048   C194.021042,101.486298 194.932022,101.807014 198.884689,107.893684   C215.387390,133.306015 231.958664,158.673843 248.440964,184.099380   C255.650650,195.220993 262.510376,206.574753 270.685760,217.494003   C272.283783,215.712509 271.096436,214.470963 270.505249,213.302673   C263.145233,198.758316 255.778946,184.216995 248.363373,169.700882   C238.137512,149.683609 227.876526,129.684235 217.608566,109.688492   C216.088440,106.728195 214.415512,103.846680 212.872162,100.897903   C211.457535,98.195045 212.017303,96.204155 214.930344,94.826332   C235.239746,85.220367 255.503326,75.517365 275.827057,65.941994   C281.498596,63.269890 282.369110,63.684856 284.851593,69.311111   C299.358093,102.188026 313.817230,135.085892 328.357849,167.947708   C331.295624,174.587097 334.514587,181.102051 337.938263,187.552643   C336.024719,175.251938 332.305450,163.424576 329.422424,151.396774   C323.150635,125.231194 314.703094,99.625313 309.426514,73.212173   C307.859924,65.370148 312.556396,57.144768 320.238129,54.687595   C340.811096,48.106888 361.611420,42.321404 382.603088,37.215328   C386.798431,36.194832 388.688538,37.245785 389.281708,41.776363   C390.765930,53.113331 392.716675,64.388634 394.427582,75.696648   C397.382690,95.227821 400.322296,114.761406 403.221527,134.300934   C405.290131,148.242264 407.280090,162.195267 409.311584,176.142120   C409.481171,177.306335 409.728729,178.446289 411.338013,179.128723   C413.599335,177.886780 412.907867,175.518112 412.991272,173.552795   C413.592163,159.388702 412.389465,145.272339 411.569305,131.158691   C410.605743,114.577271 409.153839,98.024567 407.960968,81.456009   C407.174011,70.525558 406.076233,59.597549 405.841980,48.652939   C405.615479,38.069702 410.185242,32.114094 421.333099,32.688934   C436.655396,33.479027 451.937347,31.784548 467.246826,31.746840   C478.484650,31.719158 482.144287,35.471794 482.159424,46.795860   C482.178772,61.294338 482.525635,75.806801 482.016479,90.288101   C481.297546,110.736023 479.954407,131.162048 480.118835,151.637482   C480.165314,157.426193 482.208313,162.736099 484.057465,168.252441   C486.711823,163.919632 486.285065,159.038116 486.687805,154.557907   C489.415619,124.214569 491.074829,93.803802 490.601257,63.316750   C490.482361,55.663872 489.600006,48.031544 490.427673,40.356350   C490.988464,35.155918 493.367798,31.605902 498.507629,30.217072   C500.423553,29.699364 502.411804,29.137152 504.368622,29.131556   C522.699219,29.079138 541.031006,29.060734 559.360718,29.221582   C565.199585,29.272820 565.459106,30.135941 564.471375,35.825985   C560.665527,57.749367 556.982422,79.694305 553.325012,101.643127   C550.025208,121.445808 546.810486,141.262680 543.579041,161.076706   C542.994263,164.662003 542.510315,168.263733 541.779602,173.214890   C544.692993,169.232300 545.659058,165.807190 546.633362,162.522964   C555.711914,131.921921 567.265259,102.086067 574.998108,71.075981   C576.766663,63.983925 578.934814,57.004299 580.708740,49.936306   C583.960266,36.981060 594.188477,31.302399 608.406982,35.566467   C623.828491,40.191292 639.259338,44.806583 654.716736,49.319710   C659.303650,50.658958 659.339783,52.995930 657.773193,56.730350   C646.507202,83.585266 635.309204,110.468857 624.155762,137.370758   C616.897400,154.877975 609.748840,172.430710 602.556824,189.965408   C602.181946,190.879410 601.689819,191.790207 602.256287,193.153748   C604.846985,194.419235 605.803589,192.507324 606.868042,190.541046   C621.764343,163.024307 636.663879,135.509216 651.609436,108.019173   C659.876343,92.813484 668.391357,77.739685 676.439209,62.419785   C678.617554,58.273041 681.040039,57.852730 684.844543,59.410130   C700.847351,65.960960 716.879272,72.440453 732.896729,78.955467   C735.821594,80.145142 738.753845,81.321938 741.638672,82.603813   C747.552490,85.231682 747.806458,86.285835 744.163818,91.855583   C739.789246,98.544647 735.453613,105.259186 731.084290,111.951706   C711.150940,142.483536 691.205872,173.007797 671.287964,203.549759   C670.003784,205.518875 668.059998,207.315750 668.685669,210.132309   C671.057251,210.260315 671.729492,208.550842 672.696106,207.283447   C698.119263,173.946777 723.475952,140.559158 748.980530,107.284866   C757.491760,96.180794 767.551758,94.481796 779.022888,102.609062   C796.810425,115.211609 814.255127,128.297806 831.856995,141.162872   C833.869202,142.633560 835.956726,144.001236 838.284851,145.645569  z"
   id="path83"
   style="fill:none;stroke:#fcc019;stroke-opacity:1;stroke-width:5.5;stroke-dasharray:none" />
<path
   fill="#000000"
   opacity="1.000000"
   stroke="none"
   d=" M714.292358,630.454590   C720.546448,605.595520 723.461365,580.784546 724.115112,555.529663   C724.788147,529.528198 723.116577,503.617126 722.911743,477.661102   C722.878845,473.481567 723.410095,469.297607 723.680481,465.115692   C724.206909,465.084259 724.733337,465.052826 725.259705,465.021362   C726.119202,469.590118 727.076233,474.143036 727.822266,478.730225   C732.588013,508.034332 735.535339,537.500061 734.027405,567.213379   C732.906250,589.304932 728.500244,610.755920 719.188110,631.006958   C717.932129,633.738403 716.372986,636.188660 712.925537,638.772644   C713.444641,635.479309 713.809814,633.162659 714.292358,630.454590  z"
   id="path85"
   style="fill:#592633;fill-opacity:1" />
<path
   fill="#000000"
   opacity="1.000000"
   stroke="none"
   d=" M705.827393,549.955322   C707.133057,518.730957 703.598511,488.130981 702.252930,456.629761   C706.246704,459.085938 706.642151,462.148865 707.253967,464.946289   C712.601196,489.394012 715.951233,514.139099 715.816711,539.161011   C715.679932,564.607056 711.721741,589.551697 702.216431,613.342529   C700.160156,618.489075 697.223938,623.284119 693.837463,627.985840   C700.111511,602.402344 705.387695,576.791321 705.827393,549.955322  z"
   id="path87"
   style="fill:#592633;fill-opacity:1" />
<path
   fill="#000000"
   opacity="1.000000"
   stroke="none"
   d=" M260.170990,688.872864   C249.520416,687.357117 245.382645,679.711243 241.997086,671.283936   C239.023758,663.882751 235.887009,656.542969 233.110657,649.068970   C231.998779,646.075806 231.056305,643.385132 227.398590,643.853577   C226.611938,640.626709 228.652527,639.767029 230.271881,638.719788   C232.784012,637.095276 235.373459,635.590942 237.911453,634.005737   C243.024429,630.812378 244.024445,631.046509 247.476913,636.116333   C256.830536,649.851685 265.712585,663.939392 276.409210,676.698181   C283.990845,685.741516 292.138336,694.290100 300.528381,702.604614   C304.892670,706.929565 309.155518,711.364197 312.144226,716.857788   C316.173187,724.263428 316.149933,731.774719 313.103210,739.444824   C312.413025,741.182434 311.621521,743.039124 309.427429,742.981018   C307.282867,742.924316 307.096710,740.866272 306.616150,739.335266   C301.825623,724.073364 294.009155,710.800354 281.310059,700.734558   C275.005005,695.736877 268.068512,691.840759 260.170990,688.872864  z"
   id="path89"
   style="fill:#592633;fill-opacity:1" />
<path
   fill="#000000"
   opacity="1.000000"
   stroke="none"
   d=" M561.670532,540.468018   C557.187195,549.766052 538.273804,552.417175 530.905884,548.947815   C521.303894,544.426453 516.760986,530.147583 522.132568,519.554504   C525.356018,513.197754 530.068359,508.024323 536.410461,504.668762   C544.723022,500.270538 551.354858,504.362762 557.818542,509.277740   C568.750427,517.590210 568.382446,523.778259 561.670532,540.468018  M552.840088,517.711609   C546.597473,511.961182 545.948059,511.974548 539.891907,517.911743   C537.871277,519.892639 536.063049,522.026001 534.527771,524.423523   C532.258362,527.967590 533.570923,531.174377 535.424927,534.202209   C537.353027,537.351135 540.067017,539.313416 544.104187,538.695068   C555.778137,536.907288 560.936523,525.749329 552.840088,517.711609  z"
   id="path91"
   style="fill:#fcc019;fill-opacity:1" />
</svg>
